<svg width="624" height="576" viewBox="0 0 624 576" fill="none" xmlns="http://www.w3.org/2000/svg">
<g clip-path="url(#clip0_2500_40613)">
<path d="M165.827 164.618C166.955 164.408 168.107 164.262 169.283 164.188C175.739 163.778 182.001 165.518 187.229 169.116L188.186 168.501L192.048 166.017C185.496 160.869 177.354 158.339 168.938 158.871C165.229 159.105 161.697 159.931 158.431 161.24L165.283 164.369L165.827 164.618Z" fill="#2F2F36"/>
<path d="M173.155 219.726C166.53 220.144 160.281 218.269 155.212 214.795L154.264 215.406L150.393 217.892C156.711 222.842 164.835 225.589 173.501 225.04C177.21 224.806 180.741 223.981 184.01 222.669L176.617 219.299C175.479 219.51 174.326 219.652 173.155 219.726Z" fill="#2F2F36"/>
<path d="M140.386 204.48L143.494 197.705L143.739 197.17C143.533 196.06 143.388 194.928 143.315 193.772C142.899 187.241 144.756 181.083 148.2 176.085L147.584 175.131L145.124 171.326C140.218 177.558 137.492 185.569 138.038 194.114C138.27 197.773 139.086 201.257 140.386 204.48Z" fill="#2F2F36"/>
<path d="M202.074 179.431L200.262 183.378L199.84 184.299L199.831 184.305L198.703 186.761C198.906 187.869 199.053 188.992 199.124 190.132C199.531 196.501 197.807 202.679 194.24 207.841L194.844 208.774L197.308 212.585C202.219 206.353 204.948 198.342 204.403 189.794C204.176 186.179 203.38 182.692 202.074 179.431Z" fill="#2F2F36"/>
<path d="M162.135 176.483L155.322 180.787L151.123 189.745L167.932 179.128L162.135 176.483Z" fill="#2F2F36"/>
<path d="M176.694 205.954L190.126 197.282C190.126 197.282 194.064 188.668 194.239 188.279C194.415 187.89 170.854 203.203 170.854 203.203L176.694 205.954Z" fill="#2F2F36"/>
<path d="M159.596 171.142L172.013 176.887L169.319 182.713L162.323 187.191L158.115 196.289L165.086 191.826L174.919 196.376L183.581 190.843L183.617 190.765L189.062 178.989L189.125 178.855L164.308 167.371L164.311 167.368L139.43 155.854L150.759 173.238C153.203 170.546 156.431 169.676 159.596 171.142ZM176.898 179.147L181.542 181.297L181.986 181.502L179.921 185.965L179.384 187.125L174.502 190.237L170.481 188.377L173.673 186.332L173.572 186.338L176.898 179.147Z" fill="#2F2F36"/>
<path d="M149.921 204.196L156.238 190.482L147.891 195.851L146.475 198.927C146.457 198.91 146.443 198.898 146.443 198.898L145.13 201.751L140.955 210.805L135.045 223.636L152.249 212.372C149.759 210.099 148.844 207.145 149.921 204.196Z" fill="#2F2F36"/>
<path d="M182.824 213.06C182.791 213.046 182.725 213.016 182.63 212.973L182.648 212.961C182.648 212.961 186.595 204.595 186.771 204.218C186.851 204.048 182.036 207.012 176.749 210.304C173.357 208.765 169.81 207.156 169.81 207.156L162.876 204.01L170.812 199.012L165.004 196.376L154.496 203.003L153.314 205.508L175.126 215.404L181.923 218.488L203.009 228.056L191.672 210.994C189.226 213.646 185.992 214.5 182.824 213.06Z" fill="#2F2F36"/>
<path d="M192.393 179.626C192.127 180.208 189.125 186.798 189.125 186.798L197.376 181.508L207.395 159.538L190.333 170.819C192.976 173.259 193.83 176.474 192.393 179.626Z" fill="#2F2F36"/>
</g>
<g clip-path="url(#clip1_2500_40613)">
<path d="M274.908 182.736V144.83L347.258 119.199V157.105L274.908 182.736ZM276.5 145.913V180.498L345.667 156.022V121.437L276.5 145.913Z" fill="#2F2F36"/>
<path d="M280.117 148.657V175.3L289.884 171.834V145.191L280.117 148.657Z" fill="#2F2F36"/>
<path d="M342.121 126.708L332.426 130.101V156.744L342.121 153.35V126.708Z" fill="#2F2F36"/>
<path d="M308.189 138.693L298.566 142.087V151.545L308.189 163.819V138.693Z" fill="#2F2F36"/>
<path d="M330.762 130.679L321.067 134.144V143.603L330.762 155.805V130.679Z" fill="#2F2F36"/>
<path d="M291.549 161.22L297.699 169.018L307.466 165.552L291.549 145.624V161.22Z" fill="#2F2F36"/>
<path d="M309.926 138.043V148.007L313.688 152.773L309.926 154.144V161.148L318.029 158.26L320.199 161.004L330.039 157.61L313.543 136.816L309.926 138.043Z" fill="#2F2F36"/>
</g>
<path d="M45.2178 129.421C44.3603 130.451 43.3312 131.614 42.1687 132.854C43.0834 133.712 44.1125 134.533 45.2369 135.334C45.9229 135.811 46.6852 136.288 47.4666 136.764C46.5328 134.208 45.7895 131.767 45.2178 129.421ZM43.8076 117.461C41.6541 118.529 38.7765 119.788 35.613 120.894C36.1847 123.317 36.947 125.472 37.9951 127.437C40.3773 125.93 42.4736 124.404 44.0934 123.126C43.8648 121.142 43.7695 119.254 43.8076 117.461ZM49.1436 99.7401C45.1225 98.1378 39.1195 95.2575 34.1074 91.4807V100.064C38.7955 101.838 43.598 102.945 46.9902 103.536C47.6381 102.163 48.3623 100.904 49.1436 99.7401ZM54.7846 93.35C52.0022 90.4888 48.1336 85.968 45.1606 80.9704L37.4996 83.6218C41.7303 89.02 47.7715 93.6933 51.7354 96.3448C52.7264 95.2384 53.7555 94.2465 54.7846 93.35ZM58.3102 90.7177C59.7204 89.8021 61.0925 89.0963 62.3313 88.5431C61.1878 85.4339 59.8157 80.9323 58.9772 76.1826L52.1547 78.567C53.9842 83.3357 56.4426 87.742 58.3102 90.7177ZM45.3322 107.713C42.3974 107.828 38.3763 107.79 34.1837 107.313C34.2599 109.754 34.3742 112.024 34.5648 114.142C38.2619 113.722 41.6922 113.016 44.2459 112.368C44.5318 110.708 44.8939 109.163 45.3322 107.713ZM77.9582 101.228C78.6443 101.8 80.4357 101.266 80.4357 101.266L79.1398 99.721L76.3765 97.8707C76.3765 97.8898 77.2722 100.675 77.9582 101.228ZM86.9914 116.621L85.3334 115.286L86.2863 117.594L88.9734 117.384L86.9914 116.621ZM67.0384 74.752C65.895 78.4144 65.5329 82.916 66.8288 87.3414C67.2862 86.8645 70.8118 83.164 73.9943 79.6924C73.9943 79.6924 78.1679 84.4993 72.3363 89.4397C72.3363 89.4397 82.7607 96.7263 83.4277 97.0315C83.4277 97.0315 82.8941 99.3014 83.4086 101.228L91.6033 117.117L87.4678 122L81.4076 118.586L84.3234 123.278C84.3234 123.278 81.0265 123.679 80.0164 123.202C79.4447 120.226 76.8148 115.401 76.8148 115.401L70.6403 112.902C70.6403 112.902 67.9532 109.583 68.1247 104.776C68.1247 104.776 65.0565 117.403 73.3464 120.57L84.9523 135.353C95.6815 127.933 96.1198 117.613 96.1198 97.0505V84.8045L67.0384 74.752Z" fill="#2F2F36"/>
<path fill-rule="evenodd" clip-rule="evenodd" d="M210.251 95.3201L210.249 95.3193L210.247 95.3201V95.3185L183.836 79.3238V59.1561V59.1363V38.9694L210.247 22.9739V22.9723L210.249 22.9731L210.251 22.9723V22.9739L236.662 38.9686V59.1363V59.1561V79.3238L210.251 95.3185V95.3201ZM188.409 76.1691V59.1373V59.1358V42.104L207.73 30.5117V59.1358V59.1373V87.7614L188.409 76.1691ZM202.613 59.1358V39.5493L193.526 45.0056V59.1366V59.1381V73.2691L202.613 78.7253V59.1373V59.1358ZM222.602 60.6318V65.6902V65.691H226.974V73.2683L217.886 78.7246V59.1373V59.1358V39.5486L226.974 45.0048V55.5742H232.09V42.104L212.77 30.5117V59.1358V59.1373V87.7614L232.091 76.1684V60.6318H226.986H226.974H222.602Z" fill="#2F2F36"/>
<g clip-path="url(#clip2_2500_40613)">
<path d="M448.877 98.2829C450.384 97.813 451.998 97.1717 451.998 97.1717C451.998 97.1717 452.343 96.0177 452.687 94.1801C453.031 92.3426 453.203 90.248 453.333 87.2993C453.462 84.3505 453.419 81.6153 453.419 81.6153C453.419 81.6153 450.492 82.7476 449.027 83.41C447.563 84.0724 446.961 84.4355 445.367 85.5039C443.774 86.5723 442.734 87.5484 441.686 88.4599C440.638 89.3714 439.555 90.6605 439.555 90.6605L439.576 93.9869C439.576 93.9869 440.744 93.8766 441.858 93.6877C442.741 93.5381 443.968 93.0682 443.968 93.0682V91.7217C443.968 91.7217 444.614 91.2517 445.109 90.8886C445.604 90.5255 446.444 89.9481 446.444 89.9481C446.444 89.9481 446.982 89.2428 447.132 89.0075C447.283 88.7722 448.037 87.4264 448.338 86.8708C448.64 86.3152 449.438 84.6592 449.438 84.6592C449.438 84.6592 448.79 86.5933 448.596 87.2768C448.402 87.9602 448.015 88.9864 448.015 88.9864C448.015 88.9864 448.424 88.7301 448.812 88.5376C449.199 88.3451 449.695 88.1105 449.695 88.1105C449.695 88.1105 449.695 89.2857 449.458 90.0766C449.221 90.8675 448.79 91.7006 448.575 91.978C448.36 92.2562 447.929 92.6622 447.434 93.0036C446.939 93.3456 445.927 93.8155 445.927 93.8155C445.927 93.8155 444.592 96.2305 444.162 96.871C443.731 97.5124 442.87 98.6018 442.87 98.6018C442.87 98.6018 443.43 97.2981 443.774 96.465C444.119 95.6313 444.7 94.2644 444.7 94.2644C444.7 94.2644 443.215 94.6493 441.816 94.8629C440.417 95.0764 439.555 95.0982 439.555 95.0982V112.738C439.555 112.738 442.16 111.188 443.646 109.842C445.131 108.496 446.121 107.492 447.994 104.906C449.867 102.32 451.353 98.7093 451.353 98.7093C451.353 98.7093 450.031 99.3092 448.963 99.5852C447.973 99.8416 446.488 100.255 446.488 100.255C446.488 100.255 445.64 101.842 445.153 102.485C444.652 103.145 443.532 104.337 443.532 104.337L443.668 99.4363C443.667 99.437 447.122 98.8306 448.877 98.2829Z" fill="#2F2F36"/>
<path d="M432.753 83.8593C434.432 84.8849 436.219 86.3164 437.123 87.1502C438.028 87.9832 439.125 89.4794 439.125 89.4794C439.125 89.4794 440.223 87.9839 441.127 87.1502C442.032 86.3164 443.818 84.8849 445.497 83.8593C447.176 82.8338 448.468 82.1286 450.513 81.3166C452.558 80.5046 457.014 78.8596 458.607 78.0476C460.2 77.2356 461.427 76.2311 461.427 76.2311C461.427 76.2311 457.789 75.953 455.765 75.3763C453.741 74.7996 452.105 73.7094 452.105 73.7094C452.105 73.7094 450.353 76.433 448.488 78.2611C446.766 79.949 444.786 81.167 444.786 81.167C444.786 81.167 447.994 77.5769 448.897 76.1665C449.84 74.695 450.318 73.6666 450.814 72.4268C451.309 71.1878 451.654 69.8412 451.739 68.8796C451.826 67.918 451.782 66.9564 451.524 65.7384C451.266 64.5204 450.749 63.1318 449.996 61.9777C449.242 60.8236 448.553 60.4605 448.553 60.4605C448.553 60.4605 447.972 61.5078 447.326 62.2769C446.526 63.2298 445.496 64.0934 445.496 64.0934C445.496 64.0934 446.293 65.0978 446.573 65.8241C446.853 66.5504 447.175 67.7045 447.004 69.0721C446.832 70.4397 446.401 71.5938 446.401 71.5938C446.401 71.5938 445.324 71.2088 444.442 70.6322C443.559 70.0555 443.236 69.8841 441.816 68.7518C440.395 67.6195 439.125 66.5083 439.125 66.5083C439.125 66.5083 437.854 67.6195 436.433 68.7518C435.012 69.8841 434.69 70.0555 433.807 70.6322C432.925 71.2088 431.848 71.5938 431.848 71.5938C431.848 71.5938 431.418 70.4397 431.245 69.0721C431.074 67.7045 431.396 66.5504 431.676 65.8241C431.956 65.0978 432.752 64.0934 432.752 64.0934C432.752 64.0934 431.723 63.2298 430.922 62.2769C430.276 61.5078 429.695 60.4605 429.695 60.4605C429.695 60.4605 429.006 60.8236 428.253 61.9777C427.499 63.1318 426.983 64.5204 426.724 65.7384C426.466 66.9564 426.423 67.918 426.509 68.8796C426.595 69.8412 426.939 71.1878 427.435 72.4268C427.93 73.6659 428.407 74.6943 429.35 76.1665C430.255 77.5769 433.463 81.167 433.463 81.167C433.463 81.167 431.482 79.949 429.76 78.2611C427.895 76.433 426.143 73.7094 426.143 73.7094C426.143 73.7094 424.507 74.7996 422.483 75.3763C420.459 75.953 416.821 76.2311 416.821 76.2311C416.821 76.2311 418.048 77.2356 419.641 78.0476C421.234 78.8596 425.69 80.5046 427.735 81.3166C429.782 82.1286 431.074 82.8338 432.753 83.8593Z" fill="#2F2F36"/>
<path d="M434.323 91.6601L434.453 93.0488C434.453 93.0488 435.465 93.4547 436.433 93.6683C437.402 93.8818 438.716 93.9886 438.716 93.9886L438.651 90.6767C438.651 90.6767 437.812 89.3091 435.767 87.6423C433.722 85.9754 432.236 84.9288 429.718 83.7101C427.199 82.4921 425.089 81.7441 425.089 81.7441C425.089 81.7441 425.068 85.1206 425.218 88.3468C425.369 91.5737 425.412 93.3255 425.799 95.1848C426.187 97.0441 426.94 99.5657 428.856 102.664C430.772 105.762 432.473 107.643 434.066 109.203C435.659 110.763 438.652 112.718 438.652 112.718C438.652 112.718 438.673 106.083 438.673 103.433C438.673 100.784 438.673 95.0998 438.673 95.0998C438.673 95.0998 437.446 94.9712 435.271 94.4803C433.097 93.9886 430.363 92.5999 430.363 92.5999C430.363 92.5999 430.592 94.1738 430.815 95.3133C431.117 96.8516 431.741 98.3049 431.741 98.3049C431.741 98.3049 432.363 98.6034 433.334 98.9244C433.98 99.138 434.561 99.3733 434.561 99.3733L434.668 104.309C434.668 104.309 433.958 103.497 432.688 101.66C431.417 99.8221 430.922 98.4756 430.406 96.9155C429.889 95.3554 429.587 92.6849 429.458 91.0391C429.328 89.3941 429.2 87.834 429.2 87.834C429.2 87.834 430.534 88.6249 431.783 89.5437C433.032 90.4632 434.323 91.6601 434.323 91.6601Z" fill="#2F2F36"/>
<path d="M461.556 91.5737C459.92 89.6504 459.188 88.0693 458.327 85.4619C457.466 82.8553 457.48 80.205 457.48 80.205C457.48 80.205 456.719 80.4614 455.816 80.7752C454.911 81.0889 454.453 81.2741 454.453 81.2741C454.453 81.2741 454.539 82.941 454.474 84.907C454.409 86.8731 454.366 90.6767 454.065 93.4969C453.763 96.3178 453.16 98.0057 452.17 100.249C451.18 102.493 448.597 106.638 445.281 109.929C441.966 113.22 439.098 114.349 439.098 114.349C439.098 114.349 436.283 113.219 432.967 109.929C429.652 106.638 427.069 102.493 426.078 100.249C425.088 98.0057 424.485 96.317 424.184 93.4969C423.882 90.6767 423.839 86.8724 423.775 84.907C423.71 82.941 423.796 81.2741 423.796 81.2741C423.796 81.2741 423.337 81.0889 422.433 80.7752C421.529 80.4622 420.768 80.205 420.768 80.205C420.768 80.205 420.783 82.8546 419.922 85.4619C419.06 88.0686 418.329 89.6504 416.693 91.5737C415.057 93.4969 411.225 96.1464 411.225 96.1464C411.225 96.1464 413.894 100.163 415.703 102.557C417.511 104.95 419.12 106.926 420.805 108.796C422.441 110.613 424.68 112.856 424.68 112.856C424.68 112.856 425.735 111.303 426.409 110.406C427.084 109.508 428.59 107.842 428.59 107.842C428.59 107.842 428.289 108.611 428.016 109.58C427.743 110.549 427.456 111.546 427.456 111.546C427.456 111.546 430.018 114.032 431.352 115.207C432.687 116.382 434.56 118.006 434.56 118.006C434.56 118.006 434.065 118.39 433.29 118.946C432.515 119.502 432.149 119.758 432.149 119.758C432.149 119.758 433.248 120.741 434.151 121.468C435.056 122.194 437.186 123.626 437.186 123.626L439.124 122.323L441.062 123.626C441.062 123.626 443.193 122.195 444.097 121.468C445.001 120.741 446.099 119.758 446.099 119.758C446.099 119.758 445.733 119.502 444.958 118.946C444.183 118.39 443.688 118.006 443.688 118.006C443.688 118.006 445.561 116.382 446.895 115.207C448.23 114.032 450.792 111.546 450.792 111.546C450.792 111.546 450.505 110.549 450.232 109.58C449.959 108.611 449.658 107.842 449.658 107.842C449.658 107.842 451.165 109.509 451.839 110.406C452.513 111.303 453.569 112.856 453.569 112.856C453.569 112.856 455.808 110.613 457.444 108.796C459.128 106.926 460.737 104.95 462.546 102.557C464.354 100.163 467.024 96.1464 467.024 96.1464C467.024 96.1464 463.192 93.4969 461.556 91.5737Z" fill="#2F2F36"/>
<path d="M439.116 128.32C439.103 128.329 439.116 128.32 439.116 128.32V128.32Z" fill="#2F2F36"/>
<path fill-rule="evenodd" clip-rule="evenodd" d="M447.27 90.0746C447.342 90.1189 447.454 90.9338 447.051 91.2142C446.533 91.5744 446.001 91.3326 445.846 91.0479C445.292 91.4408 444.888 91.7415 444.888 91.7415V93.3233C444.888 93.3233 446.12 93.0662 447.256 92.2404C448.393 91.4146 448.671 89.2924 448.671 89.2924C448.368 89.3948 447.838 89.7064 447.27 90.0746Z" fill="#2F2F36"/>
</g>
<g clip-path="url(#clip3_2500_40613)">
<path d="M544.964 151.604L548.039 161.009H558.168L544.964 119.952L531.761 161.009H541.889L544.964 151.604Z" fill="#2F2F36"/>
<path d="M553.104 176.564L573.904 161.01H558.168L550.029 166.978L553.104 176.564Z" fill="#2F2F36"/>
<path d="M531.761 161.01H515.302L536.825 176.564L539.9 166.978L531.761 161.01Z" fill="#2F2F36"/>
<path d="M553.103 176.564L544.964 170.595L536.825 176.564L531.761 192.3L553.103 176.564Z" fill="#2F2F36"/>
</g>
<path d="M414.489 202.923C411.143 202.923 408.008 203.135 404.871 203.348C396.508 203.984 388.351 205.471 380.197 207.595L387.307 215.879C392.674 214.615 398.126 213.763 403.618 213.331C401.11 223.526 395.464 232.448 387.307 238.608V250.291C401.107 242.431 410.725 228.625 413.654 212.691C414.28 209.504 414.489 206.108 414.489 202.92V202.923ZM452.545 207.598C444.391 205.474 436.234 203.987 427.871 203.351C424.734 203.138 421.391 202.926 418.253 202.926C418.253 206.326 418.462 209.51 419.088 212.697C422.017 228.628 431.635 242.222 445.435 250.296V238.614C437.281 232.454 431.635 223.532 429.124 213.337C434.561 213.761 439.998 214.824 445.435 215.885L452.545 207.601V207.598ZM411.981 250.506L420.764 240.31V229.476H411.981V250.506Z" fill="#2F2F36"/>
<g clip-path="url(#clip4_2500_40613)">
<path d="M189.009 492.774C189.009 386.366 275.227 300.148 381.635 300.148C488.043 300.148 574.261 386.366 574.261 492.774C555.457 492.341 216.91 492.774 189.009 492.774Z" fill="#2F2F36"/>
<path d="M46.1216 492.774C46.1216 417.881 106.242 357.122 180.438 357.122C254.634 357.122 314.713 417.881 314.713 492.774C301.622 492.442 65.5324 492.774 46.1216 492.774Z" fill="#2F2F36"/>
<path d="M264.096 490.965C258.769 490.965 254.457 486.674 254.457 481.373V171.375C254.457 166.074 258.769 161.783 264.096 161.783H486.295C491.622 161.783 495.934 166.074 495.934 171.375V481.373C495.934 486.674 491.622 490.965 486.295 490.965H264.096Z" fill="#AEE2FF"/>
<path d="M495.934 191.593H254.457V170.982C254.457 165.425 259.004 160.878 264.561 160.878H485.83C491.387 160.878 495.934 165.425 495.934 170.982V191.593Z" fill="#30A9FA"/>
<path d="M269.611 180.833C272.261 180.833 274.41 178.684 274.41 176.034C274.41 173.383 272.261 171.234 269.611 171.234C266.96 171.234 264.812 173.383 264.812 176.034C264.812 178.684 266.96 180.833 269.611 180.833Z" fill="#1A1A20"/>
<path d="M286.13 180.833C288.781 180.833 290.93 178.684 290.93 176.034C290.93 173.383 288.781 171.234 286.13 171.234C283.48 171.234 281.331 173.383 281.331 176.034C281.331 178.684 283.48 180.833 286.13 180.833Z" fill="#1A1A20"/>
<path d="M302.701 180.833C305.351 180.833 307.5 178.684 307.5 176.034C307.5 173.383 305.351 171.234 302.701 171.234C300.05 171.234 297.901 173.383 297.901 176.034C297.901 178.684 300.05 180.833 302.701 180.833Z" fill="#1A1A20"/>
<path d="M365.242 312.469H273.381C271.383 312.469 269.764 314.089 269.764 316.087V350.923C269.764 352.921 271.383 354.541 273.381 354.541H365.242C367.24 354.541 368.859 352.921 368.859 350.923V316.087C368.859 314.089 367.24 312.469 365.242 312.469Z" fill="#1A1A20"/>
<path d="M279.199 329.945H292.19C293.005 329.945 293.666 330.606 293.666 331.421C293.666 332.237 293.005 332.898 292.19 332.898H279.199C278.383 332.898 277.723 332.237 277.723 331.421C277.723 330.606 278.383 329.945 279.199 329.945Z" fill="#2F2F36"/>
<path d="M279.199 324.28H302.819C303.634 324.28 304.295 324.94 304.295 325.756C304.295 326.571 303.634 327.232 302.819 327.232H279.199C278.383 327.232 277.723 326.571 277.723 325.756C277.723 324.94 278.383 324.28 279.199 324.28Z" fill="#2F2F36"/>
<path d="M298.001 344.098C299.952 346.529 303.048 347.723 307.195 347.723C309.737 347.723 311.908 346.773 313.901 344.966L313.991 344.884L314.075 344.806C315.44 343.534 316.583 342.046 318.316 339.451L319.486 337.683C319.755 337.279 319.978 336.946 320.196 336.625C321.87 334.166 323.584 332.925 325.381 332.897C327.438 332.865 329.862 334.39 332.665 337.777L332.75 337.88C335.367 341.068 337.83 342.175 340.229 341.198C341.253 340.782 342.197 340.003 343.133 338.876C343.874 337.986 344.605 336.889 345.445 335.452L345.535 335.297C345.844 334.765 346.157 334.206 346.55 333.491L347.972 330.887L348.087 330.679C349.315 328.463 350.654 327.145 352.074 326.667C353.45 326.204 355.02 326.494 356.841 327.616C357.352 327.931 358.021 327.772 358.336 327.261C358.651 326.751 358.492 326.081 357.981 325.766C353.268 322.863 349.166 324.245 346.185 329.627L346.007 329.95L345.739 330.438L344.774 332.21L344.537 332.642C344.201 333.251 343.925 333.742 343.655 334.209C341.971 337.112 340.674 338.673 339.409 339.187C338.778 339.444 338.148 339.428 337.422 339.102C336.551 338.711 335.567 337.879 334.473 336.554L334.429 336.502C331.212 332.582 328.216 330.68 325.347 330.724C322.712 330.765 320.431 332.417 318.399 335.402L318.214 335.675L318.011 335.977C317.884 336.168 317.748 336.37 317.6 336.595L316.733 337.906L316.57 338.153C314.824 340.772 313.731 342.187 312.441 343.357C310.827 344.822 309.16 345.551 307.195 345.551C303.657 345.551 301.189 344.6 299.696 342.739C299.32 342.271 298.636 342.197 298.168 342.572C297.7 342.945 297.625 343.63 298.001 344.098Z" fill="#30A9FA"/>
<path d="M361.624 210.971H223.933C219.937 210.971 216.698 214.21 216.698 218.206V296.508C216.698 300.504 219.937 303.743 223.933 303.743H361.624C365.62 303.743 368.859 300.504 368.859 296.509V218.206C368.859 214.21 365.62 210.971 361.624 210.971Z" fill="#1A1A20"/>
<path d="M323.756 232.903H336.746C337.562 232.903 338.223 233.564 338.223 234.379C338.223 235.194 337.562 235.855 336.746 235.855H323.756C322.94 235.855 322.279 235.194 322.279 234.379C322.279 233.564 322.94 232.903 323.756 232.903Z" fill="#2F2F36"/>
<path d="M323.756 252.979H336.746C337.562 252.979 338.223 253.639 338.223 254.455C338.223 255.27 337.562 255.931 336.746 255.931H323.756C322.94 255.931 322.279 255.27 322.279 254.455C322.279 253.639 322.94 252.979 323.756 252.979Z" fill="#2F2F36"/>
<path d="M323.756 238.807H347.375C348.191 238.807 348.852 239.468 348.852 240.283C348.852 241.099 348.191 241.759 347.375 241.759H323.756C322.94 241.759 322.279 241.099 322.279 240.283C322.279 239.468 322.94 238.807 323.756 238.807Z" fill="#2F2F36"/>
<path d="M323.756 258.884H347.375C348.191 258.884 348.852 259.545 348.852 260.361C348.852 261.176 348.191 261.837 347.375 261.837H323.756C322.94 261.837 322.279 261.176 322.279 260.361C322.279 259.545 322.94 258.884 323.756 258.884Z" fill="#2F2F36"/>
<path d="M307.516 232.017H315.192C315.844 232.017 316.373 232.545 316.373 233.198V240.874C316.373 241.526 315.844 242.055 315.192 242.055H307.516C306.864 242.055 306.335 241.526 306.335 240.874V233.198C306.335 232.545 306.864 232.017 307.516 232.017Z" fill="#FF574C"/>
<path d="M307.516 252.093H315.192C315.844 252.093 316.373 252.622 316.373 253.274V260.951C316.373 261.603 315.844 262.132 315.192 262.132H307.516C306.864 262.132 306.335 261.603 306.335 260.951V253.274C306.335 252.622 306.864 252.093 307.516 252.093Z" fill="#30A9FA"/>
<path d="M323.756 273.056H336.746C337.562 273.056 338.223 273.717 338.223 274.532C338.223 275.348 337.562 276.009 336.746 276.009H323.756C322.94 276.009 322.279 275.348 322.279 274.532C322.279 273.717 322.94 273.056 323.756 273.056Z" fill="#2F2F36"/>
<path d="M323.756 278.961H347.375C348.191 278.961 348.852 279.622 348.852 280.437C348.852 281.253 348.191 281.914 347.375 281.914H323.756C322.94 281.914 322.279 281.253 322.279 280.437C322.279 279.622 322.94 278.961 323.756 278.961Z" fill="#2F2F36"/>
<path d="M307.516 272.171H315.192C315.844 272.171 316.373 272.7 316.373 273.352V281.028C316.373 281.68 315.844 282.209 315.192 282.209H307.516C306.864 282.209 306.335 281.68 306.335 281.028V273.352C306.335 272.7 306.864 272.171 307.516 272.171Z" fill="#FDD047"/>
<path d="M265.092 285.028C280.556 285.028 293.092 272.492 293.092 257.029C293.092 241.565 280.556 229.029 265.092 229.029C249.629 229.029 237.093 241.565 237.093 257.029C237.093 272.492 249.629 285.028 265.092 285.028ZM265.092 271.313C257.203 271.313 250.808 264.918 250.808 257.027C250.808 249.138 257.203 242.741 265.092 242.741C272.981 242.741 279.378 249.136 279.378 257.027C279.377 264.918 272.981 271.313 265.092 271.313Z" fill="#FF574C"/>
<path d="M265.091 285.028C280.555 285.028 293.09 272.492 293.09 257.029H279.377C279.377 264.918 272.982 271.315 265.091 271.315V285.028Z" fill="#30A9FA"/>
<path d="M245.346 237.177C240.102 242.393 237.092 249.48 237.092 257.029C237.092 272.492 249.628 285.028 265.091 285.028V271.315C257.202 271.315 250.807 264.919 250.807 257.029C250.807 253.169 252.336 249.568 255.018 246.9L245.346 237.177Z" fill="#FDD047"/>
<path d="M404.193 378.51H426.875C426.825 377.399 426.774 376.793 426.774 376.793C426.774 376.793 435.665 341.632 436.777 323.092C436.777 322.991 407.224 324.81 407.224 324.81C407.224 324.81 403.132 348.2 403.839 372.044C403.94 373.913 404.041 376.086 404.193 378.51Z" fill="#FF574C"/>
<path d="M438.394 378.51H464.916L462.744 369.467C465.219 339.813 460.571 325.517 460.571 325.517L427.381 327.083C427.381 327.083 430.816 355.828 437.383 375.479C437.636 376.388 438.04 377.399 438.394 378.51Z" fill="#FF574C"/>
<path d="M387.066 266.31C387.066 266.31 388.683 280.707 399.292 286.82C399.342 286.82 399.898 266.562 387.066 266.31Z" fill="#0879F9"/>
<path d="M407.678 251.053L387.066 266.36C387.066 266.36 396.109 275.554 399.292 286.87L411.921 274.14L407.678 251.053Z" fill="#30A9FA"/>
<path d="M476.079 288.032C476.079 288.032 470.421 268.381 468.451 261.712C463.349 244.536 448.244 245.85 448.244 245.85V245.9C447.89 245.9 447.537 245.9 447.183 245.951L414.043 248.628C407.223 249.234 402.171 255.347 402.828 262.167L407.223 324.911C432.23 333.297 460.52 325.517 460.52 325.517L459.206 283.536C470.017 284.749 476.079 288.032 476.079 288.032Z" fill="#30A9FA"/>
<path d="M431.118 295.065C433.97 294.114 436.294 291.893 437.35 288.827C437.984 287.029 438.089 285.231 437.772 283.539C437.667 283.222 437.772 282.905 437.878 282.588C438.301 281.213 440.096 281.107 440.413 282.588C440.941 284.914 440.835 287.346 439.99 289.778C437.667 296.44 430.274 300.035 423.62 297.603C416.966 295.277 413.48 287.875 415.804 281.213C416.649 278.781 418.127 276.878 420.029 275.397C421.19 274.551 422.458 275.715 421.93 276.984C421.824 277.301 421.613 277.512 421.402 277.724C420.029 278.887 419.078 280.367 418.444 282.059C417.388 285.126 417.811 288.298 419.395 290.836L425.521 273.177C425.732 272.437 426.577 272.119 427.211 272.331C427.95 272.542 428.267 273.388 428.056 274.023L421.402 293.162C421.93 293.691 422.563 294.008 423.303 294.431L431.647 270.639C431.858 269.899 432.703 269.582 433.336 269.793C434.076 270.005 434.393 270.85 434.181 271.485L425.838 295.277C426.577 295.382 427.316 295.488 428.056 295.488L437.667 268.101C437.878 267.361 438.723 267.044 439.357 267.255C440.096 267.467 440.413 268.313 440.202 268.947L431.118 295.065Z" fill="#7BDDFF"/>
<path d="M434.151 232.463C434.151 232.463 440.718 233.372 442.739 222.258C445.265 208.315 437.687 194.574 420.511 198.009C406.012 200.889 402.931 214.933 410.155 220.843C419.501 228.522 434.151 232.463 434.151 232.463Z" fill="#1A1A20"/>
<path d="M404.187 288.156C403.93 288.156 403.707 287.954 403.682 287.691L402.217 270.06C402.192 269.782 402.399 269.54 402.677 269.515C402.96 269.489 403.197 269.696 403.222 269.974L404.687 287.605C404.713 287.883 404.505 288.125 404.228 288.151C404.212 288.156 404.202 288.156 404.187 288.156Z" fill="#1A1A20"/>
<path d="M437.179 249.689L437.129 249.891C436.523 253.124 433.845 255.751 430.36 256.004C426.268 256.358 422.63 253.276 422.327 249.134C422.327 248.982 422.327 248.78 422.327 248.628L422.378 244.385L422.428 241.404L422.479 236.049L422.529 230.543L435.108 223.42L435.411 227.613L436.826 246.355C436.977 246.86 437.129 247.466 437.179 248.022C437.331 248.578 437.281 249.134 437.179 249.689Z" fill="#D793FF"/>
<path d="M429.905 237.312C429.804 237.817 429.703 238.272 429.552 238.727C428.289 242.415 424.601 243.829 422.378 244.385L422.429 241.404C422.025 241.455 421.671 241.455 421.267 241.455C420.509 241.455 419.802 241.404 419.145 241.303L417.933 238.424C417.933 238.424 420.054 237.161 422.53 236.1C426.167 234.433 430.562 233.321 429.905 237.312Z" fill="#1A1A20"/>
<path d="M389.188 268.734L376.154 279.798L368.425 291.518C370.496 301.672 375.851 301.824 385.247 294.499C385.247 294.499 392.825 288.184 398.231 283.637C395.755 277.171 391.714 271.715 389.188 268.734Z" fill="#D793FF"/>
<path d="M345.996 240.899C347.865 242.111 350.391 243.93 350.391 243.93C350.391 243.93 346.754 240.444 345.188 238.727C344.026 237.464 345.188 235.645 346.956 237.211C349.381 239.383 351.957 241.707 351.957 241.707C351.957 241.707 348.269 237.161 346.602 235.19C345.137 233.473 346.451 230.947 348.522 233.271C350.644 235.595 353.574 238.828 353.574 238.828C353.574 238.828 350.492 233.422 349.785 231.755C348.825 229.633 350.189 227.562 352.058 230.543C353.473 232.766 356.807 237.464 358.474 239.788C358.626 239.232 359.99 234.13 361.657 234.382C362.768 234.534 362.516 235.847 362.516 235.847L361 244.839L377.469 282.677C377.469 282.677 375.549 299.601 375.448 299.601C363.627 301.066 352.058 248.679 352.058 248.679C352.058 248.679 346.249 243.93 344.683 242.516C343.369 241.404 344.43 239.838 345.996 240.899Z" fill="#D793FF"/>
<path d="M435.513 227.562C435.463 227.562 435.463 227.562 435.412 227.512C435.412 227.512 434.604 234.685 429.603 238.727C427.835 240.192 425.511 241.202 422.48 241.404C422.076 241.455 421.722 241.455 421.318 241.455C420.56 241.455 419.853 241.404 419.196 241.303C411.164 240.242 409.951 233.624 409.497 229.229C409.092 225.491 409.143 221.399 409.244 218.216C409.396 214.933 409.598 212.558 409.598 212.558C416.721 224.481 435.109 222.005 435.109 222.005C435.21 221.904 437.181 220.237 438.949 222.157C440.767 224.077 439.302 228.623 435.513 227.562Z" fill="#D793FF"/>
<path d="M418.882 233.831C417.461 233.831 416.346 234.471 416.346 235.29C416.346 236.109 417.461 236.749 418.882 236.749C420.307 236.749 421.423 236.109 421.423 235.29C421.423 234.471 420.307 233.831 418.882 233.831Z" fill="#1A1A20"/>
<path d="M420.616 226.2C420.03 226.307 419.444 225.88 419.338 225.293C419.231 224.707 419.657 224.12 420.243 224.013C420.829 223.907 421.415 224.333 421.522 224.92C421.628 225.507 421.202 226.147 420.616 226.2Z" fill="#1A1A20"/>
<path d="M411.526 226.253C410.94 226.36 410.354 225.933 410.248 225.346C410.141 224.76 410.567 224.173 411.153 224.066C411.739 223.96 412.325 224.386 412.432 224.973C412.538 225.56 412.112 226.2 411.526 226.253Z" fill="#1A1A20"/>
<path d="M410.282 221.485C412.21 221.392 413.741 220.97 413.701 220.472C413.701 219.985 412.103 219.681 410.186 219.732C408.258 219.825 406.727 220.247 406.768 220.746C406.809 221.244 408.396 221.589 410.282 221.485Z" fill="#1A1A20"/>
<path d="M425.3 222.022C425.401 221.55 423.765 220.828 421.676 220.348C419.552 219.891 417.787 219.913 417.686 220.385C417.585 220.857 419.22 221.58 421.309 222.06C423.434 222.517 425.199 222.495 425.3 222.022Z" fill="#1A1A20"/>
<path d="M410.53 333.742L406.836 355.497C406.502 357.467 407.827 359.335 409.797 359.669L443.007 365.308C444.976 365.642 446.844 364.317 447.179 362.347L450.873 340.592C451.207 338.623 449.881 336.755 447.912 336.42L414.702 330.782C412.732 330.447 410.864 331.773 410.53 333.742Z" fill="#FDD047"/>
<path d="M465.472 289.498C472.544 291.518 475.676 301.723 471.635 305.31L439.859 331.276L436.272 344.562C435.969 345.775 435.312 345.876 434.757 345.825C434.251 345.775 434.1 345.068 434.049 344.108C434.049 344.108 433.948 340.976 433.898 340.925L431.928 346.078C431.624 346.785 431.018 347.088 430.311 346.785C429.654 346.482 429.705 345.623 429.907 344.815L431.574 339.46L427.684 347.694C427.33 348.452 426.421 348.755 425.613 348.402L425.562 348.351C424.804 347.947 424.552 347.088 424.906 346.331L428.24 338.298L425.512 343.198C424.754 344.562 423.643 344.209 423.39 344.108C422.38 343.501 422.784 342.137 423.188 341.38L427.229 332.842L422.885 332.084L431.069 327.285L465.472 289.498Z" fill="#D793FF"/>
<path d="M452.336 283.637C452.084 283.637 451.866 283.45 451.836 283.193L450.876 275.362C450.841 275.085 451.038 274.832 451.316 274.802C451.599 274.766 451.846 274.963 451.876 275.241L452.836 283.072C452.872 283.349 452.675 283.602 452.397 283.632C452.377 283.637 452.356 283.637 452.336 283.637Z" fill="#1A1A20"/>
<path d="M451.022 277.019L451.932 283.688C451.932 283.688 455.468 292.932 464.46 291.569C473.452 290.205 476.079 288.032 476.079 288.032C476.079 288.032 469.31 283.486 452.892 283.031L451.022 277.019Z" fill="#1A1A20"/>
<path d="M472.846 286.466L473.351 299.5L456.074 300.258L454.659 283.081C463.5 283.031 469.259 285.001 472.846 286.466Z" fill="#D793FF"/>
<path d="M480.072 379.016H270.27C269.992 379.016 269.765 378.788 269.765 378.51C269.765 378.233 269.992 378.005 270.27 378.005H480.072C480.35 378.005 480.577 378.233 480.577 378.51C480.577 378.788 480.35 379.016 480.072 379.016Z" fill="#1A1A20"/>
<path d="M437.232 203.616C437.232 203.616 441.526 197.201 451.024 197.958C461.582 198.817 466.432 215.892 458.096 229.381C452.388 238.575 458.349 243.122 458.349 243.122C458.349 243.122 435.212 242.819 443.446 227.107C451.529 211.699 450.418 197.049 439.405 206.142L437.232 203.616Z" fill="#1A1A20"/>
<circle cx="286.766" cy="410.359" r="16.5919" fill="#FF574C"/>
<g clip-path="url(#clip5_2500_40613)">
<path d="M287.409 406.651V410.026L289.764 411.688L289.023 412.739L286.123 410.693V406.651H287.409Z" fill="#1A1A20"/>
<path fill-rule="evenodd" clip-rule="evenodd" d="M280.188 410.359C280.188 406.726 283.133 403.782 286.766 403.782C290.399 403.782 293.344 406.726 293.344 410.359C293.344 413.992 290.399 416.937 286.766 416.937C283.133 416.937 280.188 413.992 280.188 410.359ZM286.766 405.067C283.844 405.067 281.474 407.437 281.474 410.359C281.474 413.282 283.844 415.651 286.766 415.651C289.689 415.651 292.058 413.282 292.058 410.359C292.058 407.437 289.689 405.067 286.766 405.067Z" fill="#1A1A20"/>
</g>
<circle cx="286.766" cy="456.235" r="16.5919" fill="#30A9FA"/>
<g clip-path="url(#clip6_2500_40613)">
<path d="M281.474 461.527V449.658H280.188V462.813H293.344V461.527H291.264C291.247 460.351 291.184 459.218 291.081 458.152L291.065 457.987H289.773L289.801 458.275C289.859 458.874 289.904 459.495 289.934 460.135C289.946 460.369 289.955 460.604 289.962 460.842C289.969 461.068 289.974 461.297 289.978 461.527H284.799C284.816 460.391 284.877 459.3 284.975 458.275L285.003 457.987H283.711L283.695 458.152C283.593 459.218 283.53 460.351 283.513 461.527H281.474Z" fill="#1A1A20"/>
<path d="M290.426 454.104L290.434 454.138H289.108C288.834 453.084 288.514 452.258 288.18 451.698C287.793 451.051 287.505 450.943 287.388 450.943C287.272 450.943 286.983 451.051 286.597 451.698C286.262 452.258 285.943 453.084 285.668 454.138H284.343L284.351 454.104C284.654 452.861 285.037 451.802 285.493 451.038C285.925 450.315 286.546 449.658 287.388 449.658C288.23 449.658 288.852 450.315 289.284 451.038C289.74 451.802 290.122 452.861 290.426 454.104Z" fill="#1A1A20"/>
<path d="M282.895 455.421H284.177V456.704H282.895V455.421Z" fill="#1A1A20"/>
<path d="M285.46 455.421H286.743V456.704H285.46V455.421Z" fill="#1A1A20"/>
<path d="M289.308 455.421H288.026V456.704H289.308V455.421Z" fill="#1A1A20"/>
<path d="M290.591 455.421H291.874V456.704H290.591V455.421Z" fill="#1A1A20"/>
</g>
<circle cx="334.196" cy="410.359" r="16.5919" fill="#FDD047"/>
<g clip-path="url(#clip7_2500_40613)">
<path d="M328.905 403.782V411.199L332.439 411.195L334.764 406.545L337.858 411.702L339.66 409.449L340.664 410.252L337.707 413.95L334.866 409.216L333.234 412.48L328.905 412.485V415.651H340.775V416.937H327.619V403.782H328.905Z" fill="#1A1A20"/>
<path d="M330.325 403.782H331.608V405.064H330.325V403.782Z" fill="#1A1A20"/>
<path d="M332.891 403.782H334.174V405.064H332.891V403.782Z" fill="#1A1A20"/>
<path d="M336.739 403.782H335.456V405.064H336.739V403.782Z" fill="#1A1A20"/>
<path d="M338.022 403.782H339.305V405.064H338.022V403.782Z" fill="#1A1A20"/>
</g>
<circle cx="334.196" cy="456.235" r="16.5919" fill="#47E956"/>
<g clip-path="url(#clip8_2500_40613)">
<path d="M329.994 460.424C327.685 458.107 327.685 454.365 329.994 452.048L329.083 451.14C326.274 453.959 326.274 458.512 329.083 461.332L329.994 460.424Z" fill="#1A1A20"/>
<path d="M339.312 451.14L338.401 452.048C340.71 454.365 340.71 458.107 338.401 460.424L339.312 461.332C342.121 458.512 342.121 453.959 339.312 451.14Z" fill="#1A1A20"/>
<path d="M336.191 458.636C337.493 457.273 337.479 455.128 336.201 453.846L337.111 452.938C338.901 454.733 338.887 457.675 337.121 459.524L336.191 458.636Z" fill="#1A1A20"/>
<path d="M332.188 458.626C330.909 457.343 330.896 455.199 332.198 453.835L331.268 452.948C329.502 454.796 329.488 457.739 331.277 459.534L332.188 458.626Z" fill="#1A1A20"/>
<path d="M334.197 454.752C333.378 454.752 332.714 455.416 332.714 456.236C332.714 457.055 333.378 457.719 334.197 457.719C335.017 457.719 335.681 457.055 335.681 456.236C335.681 455.416 335.017 454.752 334.197 454.752Z" fill="#1A1A20"/>
</g>
<path d="M477.09 472.828H373.68C372.012 472.828 370.648 471.464 370.648 469.796V397C370.648 395.333 372.012 393.969 373.68 393.969H477.09C478.757 393.969 480.121 395.333 480.121 397V469.796C480.121 471.464 478.757 472.828 477.09 472.828Z" fill="#30A9FA"/>
<path d="M427.584 414.227C427.584 414.227 428.291 426.25 424.957 427.715C424.957 427.715 431.979 428.271 432.635 418.369C433.292 408.468 432.181 402.103 425.31 400.284C417.025 398.112 407.427 404.325 413.135 412.105C419.854 421.249 422.38 410.842 427.584 414.227Z" fill="#005AD8"/>
<path d="M416.367 416.248C416.367 416.248 416.62 426.301 412.578 427.059C412.578 427.059 423.288 429.13 425.056 420.037C426.774 410.994 416.367 416.248 416.367 416.248Z" fill="#005AD8"/>
<path d="M404.244 469.494C404.244 469.494 405.76 471.11 411.67 471.009C411.67 471.009 408.589 467.776 404.244 469.494Z" fill="#0879F9"/>
<path d="M404.597 472.828H411.215L411.821 470.504L412.477 468.18C412.477 468.18 410.053 467.675 408.386 467.321C406.567 466.968 405.759 467.423 405.759 467.423L404.597 472.828Z" fill="#FDD047"/>
<path d="M420.359 426.25L412.125 427.361C408.74 427.816 407.578 429.534 407.477 431.757V451.307L404.244 469.443C404.244 469.443 408.892 469.443 411.418 470.807L420.359 426.25Z" fill="#B656FF"/>
<path d="M428.594 427.16L426.219 435.849L416.368 429.029L420.359 426.301L420.309 423.826V422.31L420.41 416.298L427.482 412.307L428.594 427.16Z" fill="#FDD047"/>
<path d="M438.444 463.886L439.353 472.828H411.013L412.023 463.886H438.444Z" fill="#47E956"/>
<path d="M448.295 449.337C447.083 442.82 445.062 432.666 445.062 432.666C443.951 427.311 440.718 426.351 437.131 426.2L428.694 425.897C428.644 425.897 428.593 425.897 428.593 425.897C428.745 429.13 424.653 432.363 421.117 430.999C417.782 429.685 420.056 426.604 420.409 426.2C415.661 426.907 410.457 429.18 411.569 438.425C412.175 443.78 412.124 459.693 412.124 463.836C412.124 463.836 416.115 465.099 425.916 465.099C433.494 465.099 438.596 463.836 438.596 463.836C438.646 463.583 438.798 457.976 438.798 457.774C440.01 457.875 441.576 457.976 442.183 457.976C445.214 458.279 449.76 457.268 448.295 449.337Z" fill="#B656FF"/>
<path d="M424.93 448.678C426.227 448.205 427.374 447.101 427.873 445.63C428.173 444.736 428.222 443.843 428.073 443.002C428.023 442.844 428.073 442.687 428.123 442.529C428.322 441.846 429.17 441.846 429.32 442.529C429.569 443.685 429.519 444.894 429.12 446.05C428.023 449.361 424.581 451.096 421.438 449.939C418.296 448.783 416.65 445.157 417.747 441.846C418.146 440.637 418.845 439.691 419.693 438.955C420.191 438.535 420.84 439.113 420.59 439.744C420.541 439.901 420.441 440.006 420.341 440.111C419.742 440.69 419.244 441.373 418.944 442.266C418.446 443.738 418.645 445.367 419.393 446.576L422.286 437.852C422.386 437.484 422.785 437.326 423.085 437.431C423.434 437.536 423.583 437.957 423.484 438.272L420.341 447.679C420.59 447.89 420.89 448.1 421.239 448.31L425.13 436.59C425.23 436.222 425.629 436.065 425.928 436.17C426.277 436.275 426.427 436.695 426.327 437.011L422.436 448.731C422.785 448.783 423.134 448.836 423.484 448.836L427.973 435.329C428.073 434.961 428.472 434.803 428.771 434.908C429.12 435.014 429.27 435.434 429.17 435.749L424.93 448.678Z" fill="#622D9B"/>
<path d="M412.024 464.139C411.882 464.139 411.771 464.028 411.771 463.886V462.573C411.771 457.329 411.771 443.391 411.215 438.506C411.2 438.369 411.301 438.243 411.438 438.228C411.574 438.213 411.7 438.314 411.716 438.45C412.271 443.366 412.271 456.829 412.271 462.578V463.891C412.276 464.028 412.165 464.139 412.024 464.139Z" fill="#1A1A20"/>
<path d="M426.825 457.016C426.825 457.016 426.017 454.49 426.623 451.964C427.229 449.438 427.734 449.034 427.734 449.034C427.734 449.034 427.987 449.59 427.987 451.56C427.987 453.53 426.977 457.066 426.977 457.066L426.825 457.016Z" fill="#1A1A20"/>
<path d="M427.886 449.236C427.886 449.236 429.351 452.671 426.977 457.117C426.977 457.117 425.563 452.671 427.886 449.236Z" fill="#1A1A20"/>
<path d="M423.241 457.953C423.241 458.984 422.381 459.806 421.351 459.76L411.379 459.315C410.413 459.272 409.651 458.476 409.651 457.508V442.64C409.651 441.609 410.511 440.787 411.541 440.833L421.513 441.278C422.479 441.321 423.241 442.117 423.241 443.085V457.953Z" fill="white"/>
<path d="M423.24 449.589L418.895 448.983C418.491 448.933 418.087 449.084 417.986 449.539C417.885 449.994 418.188 450.347 418.693 450.448L422.28 451.206L417.228 450.65C416.824 450.6 416.521 450.852 416.42 451.257V451.307C416.369 451.711 416.672 452.065 417.026 452.115L422.229 452.873L418.541 452.621C418.188 452.57 417.885 452.873 417.834 453.227C417.784 453.58 418.087 453.883 418.44 453.934L422.128 454.439C422.128 454.49 419.602 454.389 419.602 454.389C419.249 454.338 418.945 454.641 418.895 454.995C418.844 455.348 419.148 455.652 419.501 455.702L425.109 455.753L427.433 456.359C427.433 456.359 427.938 455.348 428.241 453.732C428.594 451.913 428.19 450.398 428.19 450.398L426.372 449.994L423.24 447.821C423.24 447.72 423.24 449.589 423.24 449.589Z" fill="#FDD047"/>
<path d="M434.655 449.842C437.332 448.074 437.484 439.436 437.484 439.436L438.343 450.044C438.343 450.044 434.604 449.842 434.655 449.842Z" fill="#1A1A20"/>
<path d="M429.503 411.246C428.492 410.135 427.431 411.145 427.431 411.145L426.876 408.872C426.926 408.923 426.37 410.438 426.32 410.438C422.733 410.741 416.873 410.337 413.943 409.377C413.943 409.377 413.539 407.205 413.488 407.003C413.488 407.003 412.933 410.64 413.438 414.783C413.842 418.167 414.549 421.451 419.955 422.259C427.229 423.371 427.431 416.702 427.431 416.702L427.532 414.177C429.604 414.833 430.513 412.358 429.503 411.246Z" fill="#FDD047"/>
<path d="M416.985 418.124C417.061 418.124 417.136 418.074 417.187 418.024C417.263 417.898 417.237 417.746 417.111 417.671L415.674 416.688L417.716 413.539C417.792 413.413 417.767 413.262 417.641 413.187C417.515 413.111 417.363 413.136 417.288 413.262L415.12 416.638C415.044 416.764 415.07 416.915 415.196 416.991L416.834 418.124C416.884 418.099 416.935 418.124 416.985 418.124Z" fill="#1A1A20"/>
<path d="M420.817 414.27C421.018 414.27 421.22 414.245 421.422 414.195C421.976 414.043 422.379 413.716 422.505 413.59C422.606 413.489 422.606 413.338 422.505 413.237C422.405 413.137 422.253 413.137 422.153 413.237C422.077 413.313 421.749 413.59 421.295 413.716C421.069 413.766 420.867 413.792 420.64 413.766C419.758 413.666 419.304 413.011 419.203 412.859C419.128 412.733 418.976 412.708 418.85 412.784C418.724 412.859 418.699 413.011 418.775 413.137C418.876 413.313 419.455 414.169 420.59 414.27C420.665 414.27 420.741 414.27 420.817 414.27Z" fill="#1A1A20"/>
<path d="M414.188 414.673C414.365 414.673 414.541 414.648 414.718 414.597C415.776 414.32 416.28 413.237 416.28 413.212C416.331 413.086 416.28 412.935 416.154 412.884C416.028 412.834 415.877 412.884 415.827 413.01C415.827 413.035 415.398 413.892 414.592 414.119C414.239 414.22 413.835 414.169 413.432 414.018C413.306 413.968 413.155 414.018 413.104 414.144C413.054 414.27 413.104 414.421 413.23 414.471C413.558 414.597 413.886 414.673 414.188 414.673Z" fill="#1A1A20"/>
<path d="M421.169 410.869C420.286 410.769 419.606 410.466 419.631 410.189C419.656 409.937 420.412 409.811 421.295 409.912C422.177 410.013 422.858 410.315 422.832 410.592C422.782 410.869 422.051 410.995 421.169 410.869Z" fill="#005AD8"/>
<path d="M412.775 411.122C412.699 410.87 413.304 410.441 414.161 410.164C414.993 409.887 415.749 409.887 415.825 410.139C415.9 410.391 415.295 410.819 414.438 411.096C413.606 411.374 412.85 411.374 412.775 411.122Z" fill="#005AD8"/>
<path d="M418.6 419.51C418.625 419.51 418.625 419.51 418.65 419.51C419.91 419.258 420.49 418.628 420.767 418.15C421.095 417.595 421.07 417.092 421.07 417.066C421.07 416.915 420.944 416.814 420.818 416.814C420.667 416.814 420.566 416.94 420.566 417.066C420.566 417.117 420.591 418.578 418.549 419.006C418.423 419.031 418.322 419.157 418.348 419.309C418.373 419.434 418.474 419.51 418.6 419.51Z" fill="#1A1A20"/>
<path d="M427.633 414.176C427.633 414.176 427.179 426.452 422.834 427.715C422.834 427.715 431.725 431.1 432.634 418.167C432.837 415.389 428.644 417.106 427.633 414.176Z" fill="#005AD8"/>
<path d="M424.148 421.855C424.148 421.855 422.43 423.926 420.258 423.825L420.308 422.31C420.51 422.31 422.834 422.411 424.148 421.855Z" fill="#1A1A20"/>
<path d="M438.343 450.297C438.338 450.297 438.328 450.297 438.323 450.297L427.866 449.489C427.724 449.478 427.623 449.357 427.634 449.216C427.644 449.074 427.775 448.963 427.906 448.983L438.364 449.792C438.505 449.802 438.606 449.923 438.596 450.064C438.586 450.196 438.475 450.297 438.343 450.297Z" fill="#1A1A20"/>
<path d="M439.808 458.178C439.803 458.178 439.798 458.178 439.788 458.178L427.057 457.268C426.916 457.258 426.815 457.137 426.825 457.001C426.835 456.859 426.966 456.758 427.093 456.768L439.823 457.678C439.965 457.688 440.066 457.809 440.056 457.945C440.051 458.077 439.939 458.178 439.808 458.178Z" fill="#1A1A20"/>
<path d="M424.097 473.181C423.96 473.181 423.849 473.075 423.844 472.939L423.693 469.554C423.688 469.413 423.794 469.296 423.935 469.291C424.082 469.261 424.193 469.392 424.198 469.534L424.349 472.919C424.354 473.06 424.248 473.176 424.107 473.181C424.102 473.181 424.102 473.181 424.097 473.181Z" fill="#1A1A20"/>
<path d="M555.446 410.337C549.889 438.88 534.835 459.946 534.835 459.946C534.835 459.946 528.722 434.737 534.279 406.245C539.836 377.702 549.081 355.525 554.89 356.636C560.75 357.748 561.003 381.794 555.446 410.337Z" fill="#07A358"/>
<path d="M507.098 417.612C515.636 441.86 531.549 458.38 531.549 458.38C531.549 458.38 533.62 435.545 525.083 411.297C516.545 387.048 505.583 368.761 500.632 370.529C495.681 372.246 498.561 393.363 507.098 417.612Z" fill="#07A358"/>
<path d="M539.582 408.316C541.3 436.303 532.257 459.592 532.257 459.592C532.257 459.592 520.486 437.566 518.769 409.579C517.051 381.592 520.335 358.657 526.094 358.303C531.853 357.95 537.865 380.329 539.582 408.316Z" fill="#47E956"/>
<path d="M560.445 430.14C550.443 448.377 535.54 459.441 535.54 459.441C535.54 459.441 536.904 440.951 546.907 422.714C556.909 404.477 568.074 391.342 571.812 393.413C575.55 395.434 570.499 411.903 560.445 430.14Z" fill="#47E956"/>
<path d="M503.209 434.535C513.413 449.893 527.407 458.531 527.407 458.531C527.407 458.531 524.83 442.315 514.626 426.957C504.421 411.6 493.56 400.84 490.428 402.961C487.245 405.033 493.004 419.178 503.209 434.535Z" fill="#47E956"/>
<path d="M557.111 451.964C557.111 452.267 557.061 452.571 557.01 452.874L555.09 462.169L549.786 487.933C549.331 490.055 547.513 491.571 545.34 491.571H517.656C515.535 491.571 513.666 490.055 513.211 487.933L507.906 462.169L505.987 452.874C505.936 452.571 505.886 452.267 505.886 451.964C505.886 449.539 507.856 447.418 510.432 447.418H552.514C555.141 447.418 557.111 449.489 557.111 451.964Z" fill="#005AD8"/>
<path d="M557.112 451.964C557.112 452.267 557.062 452.571 557.011 452.874L555.092 462.169H507.958L505.938 451.964C506.039 451.914 506.19 451.914 506.291 451.914H556.708C556.86 451.914 557.011 451.914 557.112 451.964Z" fill="#00468C"/>
<path d="M556.556 457.622H506.594C505.483 457.622 504.573 456.713 504.573 455.602V449.388C504.573 448.276 505.483 447.367 506.594 447.367H556.556C557.668 447.367 558.577 448.276 558.577 449.388V455.602C558.577 456.713 557.668 457.622 556.556 457.622Z" fill="#005AD8"/>
<path d="M181.71 490.61L157.562 475.202L184.337 466.866L199.745 475.202L181.71 490.61Z" fill="#622D9B"/>
<path d="M93.9105 411.701L89.6165 428.978C88.4546 433.625 91.132 438.425 95.7292 439.839L116.189 446.204L119.877 408.973L93.9105 411.701Z" fill="#FFB1DF"/>
<path d="M99.1635 384.926L89.8682 417.611C89.8682 417.611 101.134 419.278 110.732 425.845L99.1635 384.926Z" fill="#47E956"/>
<path d="M230.309 462.724C221.115 466.108 181.913 481.971 165.444 488.589C160.594 490.509 155.39 491.519 150.187 491.519H128.161C115.33 491.519 104.923 481.112 104.923 468.331V456.813L154.532 441.001C154.532 441.001 176.153 440.344 200.857 436.757C206.363 435.949 212.072 435.04 217.679 433.928C220.963 433.272 223.893 433.019 226.368 433.171C247.384 433.979 242.282 458.278 230.309 462.724Z" fill="#B656FF"/>
<path d="M226.42 430.847H158.776L166.556 384.875C166.708 383.865 167.567 383.158 168.627 383.158H232.078C233.341 383.158 234.351 384.32 234.149 385.583L226.42 430.847Z" fill="#30A9FA"/>
<path d="M226.419 433.12L200.554 457.318C199.392 458.379 197.927 458.985 196.361 458.935L153.673 458.127L171.506 442.466L200.857 436.707C206.363 435.898 212.072 434.989 217.679 433.878C221.014 433.272 223.893 433.019 226.419 433.12Z" fill="#1A1A20"/>
<path d="M226.421 430.847H158.777L133.973 450.397C133.215 451.003 133.619 452.266 134.629 452.266H197.828C198.737 452.266 199.646 451.963 200.404 451.357L226.421 430.847Z" fill="#30A9FA"/>
<path d="M161.2 428.776L168.626 385.178H232.027L224.651 428.776H161.2Z" fill="#AEE2FF"/>
<path d="M168.398 386.521L166.761 396.134L179.133 385.178H169.913L168.398 386.521Z" fill="#82D6F4"/>
<path d="M189.137 385.178L164.984 406.563L161.245 428.513L210.182 385.178H189.137Z" fill="#82D6F4"/>
<path d="M230.914 391.756L189.102 428.775H214.688L226.407 418.4L230.914 391.756Z" fill="#82D6F4"/>
<path d="M151.702 363.456C150.843 364.567 149.681 365.325 148.266 365.729C145.892 366.386 143.821 366.184 141.396 365.426V389.422L121.795 386.745L126.089 358.909H128.867C128.009 357.848 127.605 357.09 127.605 357.09L127.352 355.474L122.755 326.881L151.399 331.124C151.399 331.124 152.563 335.263 153.469 340.69L157.101 347.795L154.477 349.835C154.702 355.225 154.121 360.455 151.702 363.456Z" fill="#FFB1DF"/>
<path d="M149.714 339.499C151.287 338.876 152.413 337.986 152.235 337.504C152.057 337.022 150.616 337.192 149.043 337.815C147.471 338.439 146.344 339.328 146.522 339.81C146.7 340.292 148.142 340.122 149.714 339.499Z" fill="#1A1A20"/>
<path d="M150.825 342.977C151.476 343.228 152.227 342.877 152.477 342.225C152.728 341.574 152.377 340.822 151.726 340.571C151.075 340.321 150.324 340.671 150.073 341.323C149.823 341.975 150.174 342.726 150.825 342.977Z" fill="#1A1A20"/>
<path d="M166.908 453.782L169.737 390.079C170.091 380.278 161.957 372.296 152.157 372.852L112.753 375.024C104.114 375.479 97.5972 383.006 98.3045 391.645L105.023 461.259C105.023 461.208 137.86 466.058 166.908 453.782Z" fill="#47E956"/>
<path d="M148.116 418.975C148.116 418.975 150.238 417.712 153.623 416.601L154.38 418.015C154.38 417.965 149.581 419.682 148.116 418.975Z" fill="#1A1A20"/>
<path d="M101.287 421.501C101.029 421.501 100.812 421.309 100.786 421.046L99.5235 408.568C99.4932 408.29 99.6953 408.043 99.9731 408.013C100.256 407.992 100.499 408.189 100.529 408.462L101.792 420.94C101.822 421.218 101.62 421.466 101.342 421.496C101.322 421.501 101.302 421.501 101.287 421.501Z" fill="#1A1A20"/>
<path d="M151.702 363.455C150.843 364.567 149.681 365.325 148.266 365.729C145.892 366.385 143.821 366.183 141.396 365.426L141.295 363.152C141.295 363.152 147.862 367.497 151.651 363.556C151.651 363.506 151.702 363.455 151.702 363.455Z" fill="#1A1A20"/>
<path d="M139.578 338.601C139.578 338.601 140.083 345.168 139.78 347.29C139.477 349.412 139.073 350.169 137.861 348.452C136.699 346.785 134.931 345.673 133.769 348.149C132.607 350.624 133.668 354.312 137.153 353.958C140.639 353.605 137.052 358.252 135.941 359.465C134.83 360.677 126.14 369.72 121.341 359.566C116.542 349.412 107.752 323.9 118.613 320.06C129.475 316.221 140.69 313.897 145.994 310.412C156.35 303.642 161.958 325.062 155.592 331.831C149.227 338.601 139.578 338.601 139.578 338.601Z" fill="#1A1A20"/>
<path d="M174.234 412.509C174.234 412.509 168.323 418.924 150.339 417.914C150.339 417.914 163.979 410.084 174.234 412.509Z" fill="#1A1A20"/>
<path d="M170.142 409.023L175.75 437.97L157.109 441.405L147.965 409.174L170.142 409.023Z" fill="#FFB1DF"/>
<path d="M169.435 386.138L174.285 412.509C174.285 412.509 156.604 413.923 147.51 419.228L144.984 381.49L169.435 386.138Z" fill="#47E956"/>
<path d="M171.607 452.67L200.049 437.768C201.11 436.959 201.918 435.898 202.423 434.635C203.332 432.261 205.303 428.422 208.283 428.371C211.82 428.321 210.152 424.178 205.606 423.319C200.706 422.41 197.321 422.814 193.582 426.704C191.41 428.977 190.299 431.655 190.299 431.655L175.649 436.707L157.108 441.405L158.725 447.113C160.241 452.67 166.505 455.398 171.607 452.67Z" fill="#FFB1DF"/>
<path d="M148.369 419.025C148.131 419.025 147.924 418.859 147.874 418.621L145.449 406.75C145.393 406.477 145.57 406.209 145.843 406.153C146.116 406.098 146.383 406.275 146.439 406.548L148.864 418.419C148.919 418.692 148.743 418.96 148.47 419.015C148.434 419.02 148.404 419.025 148.369 419.025Z" fill="#1A1A20"/>
<path d="M190.247 431.655C190.247 431.655 190.5 427.866 190.5 426.603C190.5 425.239 192.925 424.785 193.379 427.967C193.783 430.695 190.247 431.655 190.247 431.655Z" fill="#FFB1DF"/>
<path d="M192.27 429.382C192.24 429.382 192.209 429.382 192.184 429.371C191.911 429.321 191.724 429.063 191.775 428.785C192.108 426.891 194.644 425.007 194.75 424.931C194.973 424.764 195.291 424.815 195.458 425.037C195.624 425.264 195.574 425.578 195.352 425.744C194.71 426.219 192.992 427.719 192.77 428.962C192.725 429.21 192.512 429.382 192.27 429.382Z" fill="#1A1A20"/>
<path d="M203.332 428.776C203.221 428.776 203.11 428.74 203.019 428.664C202.801 428.493 202.766 428.174 202.938 427.952C205.615 424.577 209.414 425.113 209.571 425.138C209.849 425.179 210.036 425.436 209.995 425.714C209.955 425.987 209.697 426.174 209.419 426.138C209.278 426.118 206.03 425.679 203.726 428.579C203.63 428.71 203.478 428.776 203.332 428.776Z" fill="#1A1A20"/>
<path d="M198.785 426.047C198.699 426.047 198.613 426.027 198.537 425.982C198.295 425.845 198.209 425.537 198.345 425.295C199.714 422.885 202.77 422.39 202.902 422.37C203.18 422.329 203.437 422.516 203.478 422.789C203.518 423.062 203.331 423.325 203.058 423.365C203.033 423.37 200.351 423.815 199.229 425.795C199.133 425.957 198.961 426.047 198.785 426.047Z" fill="#1A1A20"/>
<path d="M201.109 427.21C201.003 427.21 200.897 427.174 200.806 427.109C200.584 426.942 200.538 426.624 200.705 426.401C203.105 423.198 206.818 423.224 206.974 423.219C207.252 423.224 207.474 423.451 207.474 423.729C207.469 424.007 207.247 424.229 206.969 424.229H206.964C206.909 424.214 203.595 424.229 201.513 427.007C201.412 427.139 201.261 427.21 201.109 427.21Z" fill="#1A1A20"/>
<path d="M178.628 485.912C178.628 485.912 177.416 479.243 183.832 477.879C190.248 476.515 197.32 473.181 199.694 471.362C202.069 469.544 208.08 465.553 213.334 465.553C218.588 465.553 221.215 467.169 222.478 470.756C223.741 474.394 221.367 478.536 213.738 483.335C206.11 488.185 199.593 486.922 195.148 488.64C190.702 490.408 180.396 494.803 178.628 485.912Z" fill="#1A1A20"/>
<path d="M110.279 309.183L105.841 295.476C107.463 292.7 108.402 289.497 108.402 286.081C108.402 275.875 100.122 267.591 89.9223 267.591C79.7225 267.591 71.4431 275.875 71.4431 286.081C71.4431 296.287 79.7225 304.571 89.9223 304.571C92.3123 304.571 94.6168 304.101 96.708 303.29L110.279 309.183Z" fill="#AEE2FF"/>
<path d="M87.9087 291.451C87.6903 291.451 87.4719 291.364 87.3408 291.232L82.7362 286.932C82.3867 286.626 82.343 286.058 82.6488 285.708C82.9546 285.359 83.5226 285.315 83.872 285.621L87.865 289.397L96.1568 281.364C96.5063 281.015 97.0742 281.058 97.38 281.408C97.6858 281.758 97.6858 282.326 97.3363 282.632L88.4766 291.232C88.3456 291.364 88.1271 291.451 87.9087 291.451Z" fill="#1A1A20"/>
<path d="M623.495 492.53H0.505181C0.227332 492.53 0 492.302 0 492.025C0 491.747 0.227332 491.519 0.505181 491.519H623.495C623.773 491.519 624 491.747 624 492.025C624 492.302 623.773 492.53 623.495 492.53Z" fill="#1A1A20"/>
</g>
<defs>
<clipPath id="clip0_2500_40613">
<rect width="72.35" height="72.202" fill="white" transform="translate(135.045 155.854)"/>
</clipPath>
<clipPath id="clip1_2500_40613">
<rect width="72.35" height="72.202" fill="white" transform="translate(274.908 114)"/>
</clipPath>
<clipPath id="clip2_2500_40613">
<rect width="72.3478" height="72.3478" fill="white" transform="translate(402.939 55.9739)"/>
</clipPath>
<clipPath id="clip3_2500_40613">
<rect width="72.3478" height="72.3478" fill="white" transform="translate(508.429 119.952)"/>
</clipPath>
<clipPath id="clip4_2500_40613">
<rect width="624" height="331.702" fill="white" transform="translate(0 160.878)"/>
</clipPath>
<clipPath id="clip5_2500_40613">
<rect width="18.087" height="18.087" fill="white" transform="translate(277.723 401.316)"/>
</clipPath>
<clipPath id="clip6_2500_40613">
<rect width="18.087" height="18.087" fill="white" transform="translate(277.723 447.192)"/>
</clipPath>
<clipPath id="clip7_2500_40613">
<rect width="18.087" height="18.087" fill="white" transform="translate(325.153 401.316)"/>
</clipPath>
<clipPath id="clip8_2500_40613">
<rect width="18.087" height="18.087" fill="white" transform="translate(325.153 447.192)"/>
</clipPath>
</defs>
</svg>
